# xmcd CD database file
#
# Track frame offsets:
#	150
#	29656
#	63727
#	104349
#	139887
#	175027
#	209212
#	246603
#	270754
#	298487
#
# Disc length: 4441 seconds
#
# Revision: 5
# Processed by: cddbd v1.5.2PL0 Copyright (c) Steve Scherf et al.
# Submitted via: CDex 1.51
#
DISCID=aa11570a
DTITLE=Patricia Cornwell - 10 - Blinder Passagier CD03
DYEAR=2002
DGENRE=Krimi
TTITLE0=301
TTITLE1=302
TTITLE2=303
TTITLE3=304
TTITLE4=305
TTITLE5=306
TTITLE6=307
TTITLE7=308
TTITLE8=309
TTITLE9=310
EXTD=YEAR: 2002
EXTT0=
EXTT1=
EXTT2=
EXTT3=
EXTT4=
EXTT5=
EXTT6=
EXTT7=
EXTT8=
EXTT9=
PLAYORDER=
